{
  "accessors": [
    {
      "bufferView": 2,
      "componentType": 5126,
      "count": 2928,
      "max": [
        0.37814700603485107,
        0.17603999376296997,
        0.092197999358177185
      ],
      "min": [
        -0.37748599052429199,
        -0.40362200140953064,
        -0.11864600330591202
      ],
      "type": "VEC3"
    },
    {
      "bufferView": 2,
      "byteOffset": 35136,
      "componentType": 5126,
      "count": 2928,
      "max": [
        0.99988389015197754,
        0.99924987554550171,
        0.99940454959869385
      ],
      "min": [
        -0.99988389015197754,
        -0.99925333261489868,
        -0.99955576658248901
      ],
      "type": "VEC3"
    },
    {
      "bufferView": 3,
      "componentType": 5126,
      "count": 2928,
      "max": [
        0.99984884262084961,
        0.99925541877746582,
        0.99940139055252075,
        1
      ],
      "min": [
        -0.99984872341156006,
        -0.99925267696380615,
        -0.99940437078475952,
        -1
      ],
      "type": "VEC4"
    },
    {
      "bufferView": 1,
      "componentType": 5126,
      "count": 2928,
      "max": [
        0.99490499496459961,
        0.99098002910614014
      ],
      "min": [
        0.0048079998232424259,
        0.0032639999408274889
      ],
      "type": "VEC2"
    },
    {
      "bufferView": 0,
      "componentType": 5125,
      "count": 7932,
      "max": [
        2927
      ],
      "min": [
        0
      ],
      "type": "SCALAR"
    },
    {
      "bufferView": 2,
      "byteOffset": 70272,
      "componentType": 5126,
      "count": 3835,
      "max": [
        0.26673099398612976,
        0.1951880007982254,
        0.46363499760627747
      ],
      "min": [
        -0.20180200040340424,
        -0.23963199555873871,
        0.073354996740818024
      ],
      "type": "VEC3"
    },
    {
      "bufferView": 2,
      "byteOffset": 116292,
      "componentType": 5126,
      "count": 3835,
      "max": [
        1,
        1,
        1
      ],
      "min": [
        -1,
        -1,
        -1
      ],
      "type": "VEC3"
    },
    {
      "bufferView": 3,
      "byteOffset": 46848,
      "componentType": 5126,
      "count": 3835,
      "max": [
        1,
        1,
        1,
        1
      ],
      "min": [
        -1,
        -1,
        -1,
        -1
      ],
      "type": "VEC4"
    },
    {
      "bufferView": 1,
      "byteOffset": 23424,
      "componentType": 5126,
      "count": 3835,
      "max": [
        0.99801599979400635,
        0.99893099069595337
      ],
      "min": [
        0.0022559999488294125,
        0.0070299999788403511
      ],
      "type": "VEC2"
    },
    {
      "bufferView": 0,
      "byteOffset": 31728,
      "componentType": 5125,
      "count": 14244,
      "max": [
        3834
      ],
      "min": [
        0
      ],
      "type": "SCALAR"
    },
    {
      "bufferView": 2,
      "byteOffset": 162312,
      "componentType": 5126,
      "count": 2923,
      "max": [
        0.26246801018714905,
        0.1951880007982254,
        0.46363499760627747
      ],
      "min": [
        -0.20180200040340424,
        -0.26901900768280029,
        0.29313099384307861
      ],
      "type": "VEC3"
    },
    {
      "bufferView": 2,
      "byteOffset": 197388,
      "componentType": 5126,
      "count": 2923,
      "max": [
        0.99904680252075195,
        0.9980015754699707,
        0.99967509508132935
      ],
      "min": [
        -0.99906349182128906,
        -0.99799561500549316,
        -0.99967509508132935
      ],
      "type": "VEC3"
    },
    {
      "bufferView": 3,
      "byteOffset": 108208,
      "componentType": 5126,
      "count": 2923,
      "max": [
        0.99624544382095337,
        0.99894946813583374,
        0.9998469352722168,
        1
      ],
      "min": [
        -0.99312549829483032,
        -0.99825608730316162,
        -0.99833017587661743,
        -1
      ],
      "type": "VEC4"
    },
    {
      "bufferView": 1,
      "byteOffset": 54104,
      "componentType": 5126,
      "count": 2923,
      "max": [
        0.99595600366592407,
        0.98115402460098267
      ],
      "min": [
        0.0022559999488294125,
        0.0070299999788403511
      ],
      "type": "VEC2"
    },
    {
      "bufferView": 0,
      "byteOffset": 88704,
      "componentType": 5125,
      "count": 9384,
      "max": [
        2922
      ],
      "min": [
        0
      ],
      "type": "SCALAR"
    },
    {
      "bufferView": 2,
      "byteOffset": 232464,
      "componentType": 5126,
      "count": 3109,
      "max": [
        0.25819000601768494,
        0.32409501075744629,
        0.13327600061893463
      ],
      "min": [
        -0.25819000601768494,
        -0.2449910044670105,
        -0.33779799938201904
      ],
      "type": "VEC3"
    },
    {
      "bufferView": 2,
      "byteOffset": 269772,
      "componentType": 5126,
      "count": 3109,
      "max": [
        1,
        1,
        1
      ],
      "min": [
        -1,
        -1,
        -1
      ],
      "type": "VEC3"
    },
    {
      "bufferView": 3,
      "byteOffset": 154976,
      "componentType": 5126,
      "count": 3109,
      "max": [
        1,
        1,
        1,
        1
      ],
      "min": [
        -1,
        -1,
        -1,
        -1
      ],
      "type": "VEC4"
    },
    {
      "bufferView": 1,
      "byteOffset": 77488,
      "componentType": 5126,
      "count": 3109,
      "max": [
        0.99849498271942139,
        0.99732297658920288
      ],
      "min": [
        0.001601999974809587,
        0.00073400000110268593
      ],
      "type": "VEC2"
    },
    {
      "bufferView": 0,
      "byteOffset": 126240,
      "componentType": 5125,
      "count": 7908,
      "max": [
        3108
      ],
      "min": [
        0
      ],
      "type": "SCALAR"
    },
    {
      "bufferView": 2,
      "byteOffset": 307080,
      "componentType": 5126,
      "count": 6068,
      "max": [
        0.45867300033569336,
        0.29584899544715881,
        -0.13144800066947937
      ],
      "min": [
        -0.45385301113128662,
        -0.27499398589134216,
        -0.57067102193832397
      ],
      "type": "VEC3"
    },
    {
      "bufferView": 2,
      "byteOffset": 379896,
      "componentType": 5126,
      "count": 6068,
      "max": [
        1,
        1,
        1
      ],
      "min": [
        -1,
        -1,
        -1
      ],
      "type": "VEC3"
    },
    {
      "bufferView": 3,
      "byteOffset": 204720,
      "componentType": 5126,
      "count": 6068,
      "max": [
        1,
        1,
        1,
        1
      ],
      "min": [
        -1,
        -1,
        -1,
        -1
      ],
      "type": "VEC4"
    },
    {
      "bufferView": 1,
      "byteOffset": 102360,
      "componentType": 5126,
      "count": 6068,
      "max": [
        0.99656999111175537,
        0.9947810173034668
      ],
      "min": [
        -0.0039699999615550041,
        0.0037760001141577959
      ],
      "type": "VEC2"
    },
    {
      "bufferView": 0,
      "byteOffset": 157872,
      "componentType": 5125,
      "count": 13440,
      "max": [
        6067
      ],
      "min": [
        0
      ],
      "type": "SCALAR"
    },
    {
      "bufferView": 2,
      "byteOffset": 452712,
      "componentType": 5126,
      "count": 7517,
      "max": [
        0.45867300033569336,
        0.3048509955406189,
        -0.12758900225162506
      ],
      "min": [
        -0.45879998803138733,
        -0.27696898579597473,
        -0.57265198230743408
      ],
      "type": "VEC3"
    },
    {
      "bufferView": 2,
      "byteOffset": 542916,
      "componentType": 5126,
      "count": 7517,
      "max": [
        1,
        1,
        1
      ],
      "min": [
        -1,
        -1,
        -1
      ],
      "type": "VEC3"
    },
    {
      "bufferView": 3,
      "byteOffset": 301808,
      "componentType": 5126,
      "count": 7517,
      "max": [
        1,
        1,
        1,
        1
      ],
      "min": [
        -1,
        -1,
        -1,
        -1
      ],
      "type": "VEC4"
    },
    {
      "bufferView": 1,
      "byteOffset": 150904,
      "componentType": 5126,
      "count": 7517,
      "max": [
        0.99762898683547974,
        0.98187601566314697
      ],
      "min": [
        0.02503499947488308,
        0.0032569998875260353
      ],
      "type": "VEC2"
    },
    {
      "bufferView": 0,
      "byteOffset": 211632,
      "componentType": 5125,
      "count": 15012,
      "max": [
        7516
      ],
      "min": [
        0
      ],
      "type": "SCALAR"
    },
    {
      "bufferView": 2,
      "byteOffset": 633120,
      "componentType": 5126,
      "count": 7448,
      "max": [
        0.45867300033569336,
        0.3048509955406189,
        -0.12758900225162506
      ],
      "min": [
        -0.45879998803138733,
        -0.27696898579597473,
        -0.57265198230743408
      ],
      "type": "VEC3"
    },
    {
      "bufferView": 2,
      "byteOffset": 722496,
      "componentType": 5126,
      "count": 7448,
      "max": [
        1,
        1,
        1
      ],
      "min": [
        -1,
        -1,
        -1
      ],
      "type": "VEC3"
    },
    {
      "bufferView": 3,
      "byteOffset": 422080,
      "componentType": 5126,
      "count": 7448,
      "max": [
        1,
        1,
        1,
        1
      ],
      "min": [
        -1,
        -1,
        -1,
        -1
      ],
      "type": "VEC4"
    },
    {
      "bufferView": 1,
      "byteOffset": 211040,
      "componentType": 5126,
      "count": 7448,
      "max": [
        0.99656999111175537,
        0.76761901378631592
      ],
      "min": [
        0.05532199889421463,
        0.025244999676942825
      ],
      "type": "VEC2"
    },
    {
      "bufferView": 0,
      "byteOffset": 271680,
      "componentType": 5125,
      "count": 15012,
      "max": [
        7447
      ],
      "min": [
        0
      ],
      "type": "SCALAR"
    },
    {
      "bufferView": 2,
      "byteOffset": 811872,
      "componentType": 5126,
      "count": 4836,
      "max": [
        0.45867300033569336,
        0.28376701474189758,
        -0.13144800066947937
      ],
      "min": [
        -0.45879998803138733,
        -0.27499398589134216,
        -0.57065898180007935
      ],
      "type": "VEC3"
    },
    {
      "bufferView": 2,
      "byteOffset": 869904,
      "componentType": 5126,
      "count": 4836,
      "max": [
        1,
        1,
        1
      ],
      "min": [
        -1,
        -1,
        -1
      ],
      "type": "VEC3"
    },
    {
      "bufferView": 3,
      "byteOffset": 541248,
      "componentType": 5126,
      "count": 4836,
      "max": [
        1,
        0.99945545196533203,
        0.99946087598800659,
        1
      ],
      "min": [
        -1,
        -0.99999523162841797,
        -0.99997538328170776,
        -1
      ],
      "type": "VEC4"
    },
    {
      "bufferView": 1,
      "byteOffset": 270624,
      "componentType": 5126,
      "count": 4836,
      "max": [
        0.99656999111175537,
        0.76761901378631592
      ],
      "min": [
        -0.0039699999615550041,
        0.00093300000298768282
      ],
      "type": "VEC2"
    },
    {
      "bufferView": 0,
      "byteOffset": 331728,
      "componentType": 5125,
      "count": 15000,
      "max": [
        4835
      ],
      "min": [
        0
      ],
      "type": "SCALAR"
    },
    {
      "bufferView": 2,
      "byteOffset": 927936,
      "componentType": 5126,
      "count": 4191,
      "max": [
        0.45397898554801941,
        0.28376701474189758,
        -0.15525700151920319
      ],
      "min": [
        -0.45385301113128662,
        -0.25287699699401855,
        -0.55301302671432495
      ],
      "type": "VEC3"
    },
    {
      "bufferView": 2,
      "byteOffset": 978228,
      "componentType": 5126,
      "count": 4191,
      "max": [
        1,
        1,
        1
      ],
      "min": [
        -1,
        -1,
        -1
      ],
      "type": "VEC3"
    },
    {
      "bufferView": 3,
      "byteOffset": 618624,
      "componentType": 5126,
      "count": 4191,
      "max": [
        1,
        0.99826425313949585,
        0.98676443099975586,
        1
      ],
      "min": [
        -1,
        -0.99818956851959229,
        -0.99818122386932373,
        1
      ],
      "type": "VEC4"
    },
    {
      "bufferView": 1,
      "byteOffset": 309312,
      "componentType": 5126,
      "count": 4191,
      "max": [
        0.85187602043151855,
        0.62963402271270752
      ],
      "min": [
        -0.0039699999615550041,
        0.00093300000298768282
      ],
      "type": "VEC2"
    },
    {
      "bufferView": 0,
      "byteOffset": 391728,
      "componentType": 5125,
      "count": 15000,
      "max": [
        4190
      ],
      "min": [
        0
      ],
      "type": "SCALAR"
    },
    {
      "bufferView": 2,
      "byteOffset": 1028520,
      "componentType": 5126,
      "count": 1566,
      "max": [
        0.45397898554801941,
        0.28376701474189758,
        -0.15164199471473694
      ],
      "min": [
        -0.45385301113128662,
        -0.029541999101638794,
        -0.55275499820709229
      ],
      "type": "VEC3"
    },
    {
      "bufferView": 2,
      "byteOffset": 1047312,
      "componentType": 5126,
      "count": 1566,
      "max": [
        1,
        1,
        1
      ],
      "min": [
        -1,
        -1,
        -1
      ],
      "type": "VEC3"
    },
    {
      "bufferView": 3,
      "byteOffset": 685680,
      "componentType": 5126,
      "count": 1566,
      "max": [
        1,
        0.85255736112594604,
        1,
        1
      ],
      "min": [
        -1,
        -0.99818956851959229,
        -1,
        -1
      ],
      "type": "VEC4"
    },
    {
      "bufferView": 1,
      "byteOffset": 342840,
      "componentType": 5126,
      "count": 1566,
      "max": [
        0.98381900787353516,
        0.98801201581954956
      ],
      "min": [
        -0.0039699999615550041,
        0.00093300000298768282
      ],
      "type": "VEC2"
    },
    {
      "bufferView": 0,
      "byteOffset": 451728,
      "componentType": 5125,
      "count": 5604,
      "max": [
        1565
      ],
      "min": [
        0
      ],
      "type": "SCALAR"
    }
  ],
  "asset": {
    "extras": {
      "author": "Fortis (https://sketchfab.com/Fortis)",
      "license": "CC-BY-4.0 (http://creativecommons.org/licenses/by/4.0/)",
      "source": "https://sketchfab.com/3d-models/walle-6683d7f95d9b480d93f3d375b6e6c083",
      "title": "Walle"
    },
    "generator": "Sketchfab-6.76.0",
    "version": "2.0"
  },
  "bufferViews": [
    {
      "buffer": 0,
      "byteLength": 474144,
      "byteOffset": 0,
      "name": "floatBufferViews",
      "target": 34963
    },
    {
      "buffer": 0,
      "byteLength": 355368,
      "byteOffset": 474144,
      "byteStride": 8,
      "name": "floatBufferViews",
      "target": 34962
    },
    {
      "buffer": 0,
      "byteLength": 1066104,
      "byteOffset": 829512,
      "byteStride": 12,
      "name": "floatBufferViews",
      "target": 34962
    },
    {
      "buffer": 0,
      "byteLength": 710736,
      "byteOffset": 1895616,
      "byteStride": 16,
      "name": "floatBufferViews",
      "target": 34962
    }
  ],
  "buffers": [
    {
      "byteLength": 2606352,
      "uri": "scene.bin"
    }
  ],
  "images": [
    {
      "uri": "textures/Hand_baseColor.jpeg"
    },
    {
      "uri": "textures/Hand_metallicRoughness.png"
    },
    {
      "uri": "textures/Hand_normal.png"
    },
    {
      "uri": "textures/Head_baseColor.png"
    },
    {
      "uri": "textures/Head_metallicRoughness.png"
    },
    {
      "uri": "textures/Head_normal.png"
    },
    {
      "uri": "textures/Tors_baseColor.jpeg"
    },
    {
      "uri": "textures/Tors_metallicRoughness.png"
    },
    {
      "uri": "textures/Tors_emissive.jpeg"
    },
    {
      "uri": "textures/Tors_normal.png"
    },
    {
      "uri": "textures/Track_baseColor.jpeg"
    },
    {
      "uri": "textures/Track_metallicRoughness.png"
    },
    {
      "uri": "textures/Track_normal.png"
    }
  ],
  "materials": [
    {
      "doubleSided": true,
      "emissiveFactor": [
        0,
        0,
        0
      ],
      "name": "Hand",
      "normalTexture": {
        "index": 2,
        "scale": 1,
        "texCoord": 0
      },
      "occlusionTexture": {
        "index": 1,
        "strength": 1,
        "texCoord": 0
      },
      "pbrMetallicRoughness": {
        "baseColorFactor": [
          1,
          1,
          1,
          1
        ],
        "baseColorTexture": {
          "index": 0,
          "texCoord": 0
        },
        "metallicFactor": 1,
        "metallicRoughnessTexture": {
          "index": 1,
          "texCoord": 0
        },
        "roughnessFactor": 1
      }
    },
    {
      "alphaMode": "BLEND",
      "doubleSided": true,
      "emissiveFactor": [
        0,
        0,
        0
      ],
      "name": "Head",
      "normalTexture": {
        "index": 5,
        "scale": 1,
        "texCoord": 0
      },
      "occlusionTexture": {
        "index": 4,
        "strength": 1,
        "texCoord": 0
      },
      "pbrMetallicRoughness": {
        "baseColorFactor": [
          1,
          1,
          1,
          1
        ],
        "baseColorTexture": {
          "index": 3,
          "texCoord": 0
        },
        "metallicFactor": 1,
        "metallicRoughnessTexture": {
          "index": 4,
          "texCoord": 0
        },
        "roughnessFactor": 1
      }
    },
    {
      "doubleSided": true,
      "emissiveFactor": [
        1,
        1,
        1
      ],
      "emissiveTexture": {
        "index": 8,
        "texCoord": 0
      },
      "name": "Tors",
      "normalTexture": {
        "index": 9,
        "scale": 1,
        "texCoord": 0
      },
      "occlusionTexture": {
        "index": 7,
        "strength": 1,
        "texCoord": 0
      },
      "pbrMetallicRoughness": {
        "baseColorFactor": [
          1,
          1,
          1,
          1
        ],
        "baseColorTexture": {
          "index": 6,
          "texCoord": 0
        },
        "metallicFactor": 1,
        "metallicRoughnessTexture": {
          "index": 7,
          "texCoord": 0
        },
        "roughnessFactor": 1
      }
    },
    {
      "doubleSided": true,
      "emissiveFactor": [
        0,
        0,
        0
      ],
      "name": "Track",
      "normalTexture": {
        "index": 12,
        "scale": 1,
        "texCoord": 0
      },
      "occlusionTexture": {
        "index": 11,
        "strength": 1,
        "texCoord": 0
      },
      "pbrMetallicRoughness": {
        "baseColorFactor": [
          1,
          1,
          1,
          1
        ],
        "baseColorTexture": {
          "index": 10,
          "texCoord": 0
        },
        "metallicFactor": 1,
        "metallicRoughnessTexture": {
          "index": 11,
          "texCoord": 0
        },
        "roughnessFactor": 1
      }
    }
  ],
  "meshes": [
    {
      "primitives": [
        {
          "attributes": {
            "NORMAL": 1,
            "POSITION": 0,
            "TANGENT": 2,
            "TEXCOORD_0": 3
          },
          "indices": 4,
          "material": 0,
          "mode": 4
        }
      ]
    },
    {
      "primitives": [
        {
          "attributes": {
            "NORMAL": 6,
            "POSITION": 5,
            "TANGENT": 7,
            "TEXCOORD_0": 8
          },
          "indices": 9,
          "material": 1,
          "mode": 4
        }
      ]
    },
    {
      "primitives": [
        {
          "attributes": {
            "NORMAL": 11,
            "POSITION": 10,
            "TANGENT": 12,
            "TEXCOORD_0": 13
          },
          "indices": 14,
          "material": 1,
          "mode": 4
        }
      ]
    },
    {
      "primitives": [
        {
          "attributes": {
            "NORMAL": 16,
            "POSITION": 15,
            "TANGENT": 17,
            "TEXCOORD_0": 18
          },
          "indices": 19,
          "material": 2,
          "mode": 4
        }
      ]
    },
    {
      "primitives": [
        {
          "attributes": {
            "NORMAL": 21,
            "POSITION": 20,
            "TANGENT": 22,
            "TEXCOORD_0": 23
          },
          "indices": 24,
          "material": 3,
          "mode": 4
        }
      ]
    },
    {
      "primitives": [
        {
          "attributes": {
            "NORMAL": 26,
            "POSITION": 25,
            "TANGENT": 27,
            "TEXCOORD_0": 28
          },
          "indices": 29,
          "material": 3,
          "mode": 4
        }
      ]
    },
    {
      "primitives": [
        {
          "attributes": {
            "NORMAL": 31,
            "POSITION": 30,
            "TANGENT": 32,
            "TEXCOORD_0": 33
          },
          "indices": 34,
          "material": 3,
          "mode": 4
        }
      ]
    },
    {
      "primitives": [
        {
          "attributes": {
            "NORMAL": 36,
            "POSITION": 35,
            "TANGENT": 37,
            "TEXCOORD_0": 38
          },
          "indices": 39,
          "material": 3,
          "mode": 4
        }
      ]
    },
    {
      "primitives": [
        {
          "attributes": {
            "NORMAL": 41,
            "POSITION": 40,
            "TANGENT": 42,
            "TEXCOORD_0": 43
          },
          "indices": 44,
          "material": 3,
          "mode": 4
        }
      ]
    },
    {
      "primitives": [
        {
          "attributes": {
            "NORMAL": 46,
            "POSITION": 45,
            "TANGENT": 47,
            "TEXCOORD_0": 48
          },
          "indices": 49,
          "material": 3,
          "mode": 4
        }
      ]
    }
  ],
  "nodes": [
    {
      "children": [
        1
      ],
      "name": "RootNode (gltf orientation matrix)",
      "rotation": [
        -0.70710678118654746,
        -0,
        -0,
        0.70710678118654757
      ]
    },
    {
      "children": [
        2
      ],
      "name": "RootNode (model correction matrix)"
    },
    {
      "children": [
        3,
        4,
        5,
        6,
        7,
        8,
        9,
        10,
        11,
        12
      ],
      "name": "model.obj.cleaner.materialmerger.gles"
    },
    {
      "mesh": 0,
      "name": ""
    },
    {
      "mesh": 1,
      "name": ""
    },
    {
      "mesh": 2,
      "name": ""
    },
    {
      "mesh": 3,
      "name": ""
    },
    {
      "mesh": 4,
      "name": ""
    },
    {
      "mesh": 5,
      "name": ""
    },
    {
      "mesh": 6,
      "name": ""
    },
    {
      "mesh": 7,
      "name": ""
    },
    {
      "mesh": 8,
      "name": ""
    },
    {
      "mesh": 9,
      "name": ""
    }
  ],
  "samplers": [
    {
      "magFilter": 9729,
      "minFilter": 9987,
      "wrapS": 10497,
      "wrapT": 10497
    }
  ],
  "scene": 0,
  "scenes": [
    {
      "name": "OSG_Scene",
      "nodes": [
        0
      ]
    }
  ],
  "textures": [
    {
      "sampler": 0,
      "source": 0
    },
    {
      "sampler": 0,
      "source": 1
    },
    {
      "sampler": 0,
      "source": 2
    },
    {
      "sampler": 0,
      "source": 3
    },
    {
      "sampler": 0,
      "source": 4
    },
    {
      "sampler": 0,
      "source": 5
    },
    {
      "sampler": 0,
      "source": 6
    },
    {
      "sampler": 0,
      "source": 7
    },
    {
      "sampler": 0,
      "source": 8
    },
    {
      "sampler": 0,
      "source": 9
    },
    {
      "sampler": 0,
      "source": 10
    },
    {
      "sampler": 0,
      "source": 11
    },
    {
      "sampler": 0,
      "source": 12
    }
  ]
}

